HIERARCHY
ROOT Hips
{
	OFFSET 0.000000 0.000000 0.000000
	CHANNELS 6 Xposition Yposition Zposition Xrotation Yrotation Zrotation
	JOINT LeftUpLeg_virtual
	{
		OFFSET 0.000000 0.000000 0.000000
		CHANNELS 3 Xrotation Yrotation Zrotation
		JOINT LeftUpLeg
		{
			OFFSET 15.427100 -6.655098 0.678600
			CHANNELS 3 Xrotation Yrotation Zrotation
			JOINT LeftLeg
			{
				OFFSET 4.081073 -39.591068 13.024000
				CHANNELS 3 Xrotation Yrotation Zrotation
				JOINT LeftFoot
				{
					OFFSET -4.081074 -37.707932 -15.979700
					CHANNELS 3 Xrotation Yrotation Zrotation
					JOINT LeftToeBase
					{
						OFFSET 5.346399 -15.068900 20.645000
						CHANNELS 3 Xrotation Yrotation Zrotation
						JOINT LeftToe_End
						{
							OFFSET 2.754700 0.931300 11.300900
							CHANNELS 3 Xrotation Yrotation Zrotation
							End Site
							{
								OFFSET 0 0 0
							}
						}
					}
				}
			}
		}
	}
	JOINT RightUpLeg_virtual
	{
		OFFSET 0.000000 0.000000 0.000000
		CHANNELS 3 Xrotation Yrotation Zrotation
		JOINT RightUpLeg
		{
			OFFSET -15.569500 -6.655098 0.678600
			CHANNELS 3 Xrotation Yrotation Zrotation
			JOINT RightLeg
			{
				OFFSET -4.081825 -39.591045 13.023800
				CHANNELS 3 Xrotation Yrotation Zrotation
				JOINT RightFoot
				{
					OFFSET 4.081824 -37.707954 -15.979600
					CHANNELS 3 Xrotation Yrotation Zrotation
					JOINT RightToeBase
					{
						OFFSET -5.346400 -15.068900 20.645000
						CHANNELS 3 Xrotation Yrotation Zrotation
						JOINT RightToe_End
						{
							OFFSET -2.754700 0.931300 11.300900
							CHANNELS 3 Xrotation Yrotation Zrotation
							End Site
							{
								OFFSET 0 0 0
							}
						}
					}
				}
			}
		}
	}
	JOINT Spine_virtual
	{
		OFFSET 0.000000 0.000000 0.000000
		CHANNELS 3 Xrotation Yrotation Zrotation
		JOINT Spine
		{
			OFFSET -0.279200 12.230698 -2.892100
			CHANNELS 3 Xrotation Yrotation Zrotation
			JOINT Spine1
			{
				OFFSET -0.232667 10.192268 -1.242267
				CHANNELS 3 Xrotation Yrotation Zrotation
				JOINT Spine1_split
				{
					OFFSET -0.232667 10.192268 -1.242267
					CHANNELS 3 Xrotation Yrotation Zrotation
					JOINT Spine2
					{
						OFFSET -0.232667 10.192268 -1.242267
						CHANNELS 3 Xrotation Yrotation Zrotation
						JOINT Neck_virtual
						{
							OFFSET 0.000000 0.000000 0.000000
							CHANNELS 3 Xrotation Yrotation Zrotation
							JOINT Neck
							{
								OFFSET -0.418800 17.814194 8.416900
								CHANNELS 3 Xrotation Yrotation Zrotation
								JOINT Head
								{
									OFFSET 0.000000 7.031097 3.806800
									CHANNELS 3 Xrotation Yrotation Zrotation
									JOINT HeadTop_End
									{
										OFFSET 0.000000 24.646606 12.978600
										CHANNELS 3 Xrotation Yrotation Zrotation
										End Site
										{
											OFFSET 0 0 0
										}
									}
								}
							}
						}
						JOINT LeftShoulder_virtual
						{
							OFFSET 0.000000 0.000000 0.000000
							CHANNELS 3 Xrotation Yrotation Zrotation
							JOINT LeftShoulder
							{
								OFFSET 8.476499 7.247704 -3.868750
								CHANNELS 3 Xrotation Yrotation Zrotation
								JOINT LeftShoulder_split
								{
									OFFSET 8.476499 7.247704 -3.868750
									CHANNELS 3 Xrotation Yrotation Zrotation
									JOINT LeftArm
									{
										OFFSET 9.308998 -2.777710 0.208600
										CHANNELS 3 Xrotation Yrotation Zrotation
										JOINT LeftForeArm
										{
											OFFSET 29.972298 0.000000 0.000000
											CHANNELS 3 Xrotation Yrotation Zrotation
											JOINT LeftHand
											{
												OFFSET 26.026505 0.000000 0.000000
												CHANNELS 3 Xrotation Yrotation Zrotation
												End Site
												{
													OFFSET 0 0 0
												}
											}
										}
									}
								}
							}
						}
						JOINT RightShoulder_virtual
						{
							OFFSET 0.000000 0.000000 0.000000
							CHANNELS 3 Xrotation Yrotation Zrotation
							JOINT RightShoulder
							{
								OFFSET -7.570500 7.247704 -3.868750
								CHANNELS 3 Xrotation Yrotation Zrotation
								JOINT RightShoulder_split
								{
									OFFSET -7.570500 7.247704 -3.868750
									CHANNELS 3 Xrotation Yrotation Zrotation
									JOINT RightArm
									{
										OFFSET -9.308998 -2.777710 0.208500
										CHANNELS 3 Xrotation Yrotation Zrotation
										JOINT RightForeArm
										{
											OFFSET -29.972300 0.000000 0.000000
											CHANNELS 3 Xrotation Yrotation Zrotation
											JOINT RightHand
											{
												OFFSET -26.026505 0.000000 0.000000
												CHANNELS 3 Xrotation Yrotation Zrotation
												End Site
												{
													OFFSET 0 0 0
												}
											}
										}
									}
								}
							}
						}
					}
				}
			}
		}
	}
}
MOTION
Frames: 11
Frame Time: 0.03333333
-2.015517 53.603405 2.727512 0.000000 0.000000 0.000000 27.366662 -38.663761 19.405874 -65.782891 -10.766612 27.351160 78.346477 -24.310989 2.744793 -26.772484 7.495858 -21.271144 0.911911 -6.146626 1.195397 0.000000 0.000000 0.000000 27.832077 -40.084318 20.128622 -64.107268 -5.433468 -31.242078 87.373344 19.536296 -10.420887 -36.825313 -21.235596 24.176611 2.442655 8.615507 -15.182063 0.000000 0.000000 0.000000 29.486719 -35.948378 18.265147 10.120961 3.263887 -0.069059 2.844402 -7.858784 -1.594981 0.164371 0.115131 0.039404 0.000000 0.000000 0.000000 3.824720 -5.401949 -1.408357 -0.720209 11.153625 -7.320691 -15.785313 61.791314 -4.514825 0.000000 0.000000 0.000000 3.241077 -7.089749 -2.515442 5.559890 -8.933445 -7.412376 -1.920443 -4.700164 -0.601592 -70.898607 -1.374240 -11.308632 21.236576 -10.440264 13.455753 0.000000 0.000000 0.000000 5.781850 -5.970179 -1.706274 -3.578422 1.835968 12.326012 2.410554 3.928261 5.741753 -14.765254 -2.848587 50.228518 -21.317429 35.922168 11.645149 0.000000 0.000000 0.000000 
-1.558507 49.956192 2.746021 0.000000 0.000000 0.000000 29.027884 -38.459019 20.382290 -69.659207 -13.999081 28.725628 82.892310 -25.875685 3.163550 -27.380152 7.557763 -23.155934 0.796296 -6.600007 1.062615 0.000000 0.000000 0.000000 29.542177 -39.759108 21.000513 -68.438755 -2.944408 -32.749890 92.235161 19.950422 -10.398684 -37.877528 -21.205130 23.555072 3.257107 8.365448 -16.043638 0.000000 0.000000 0.000000 31.347396 -35.702744 19.109420 9.882263 3.580264 -0.304203 3.188151 -7.814113 -1.486453 0.219153 0.156325 0.029823 0.000000 0.000000 0.000000 4.018366 -5.431985 -1.321170 -0.698174 10.967576 -7.408135 -18.658801 60.564968 -2.532387 0.000000 0.000000 0.000000 3.473608 -7.080256 -2.491770 5.685965 -8.676991 -7.178265 -1.718843 -4.652890 -0.248664 -72.249085 -2.784133 -11.524623 21.683156 -9.288179 13.153295 0.000000 0.000000 0.000000 6.063578 -5.902622 -1.624030 -3.245498 2.409874 12.526995 2.685735 3.830133 5.470614 -13.930067 -1.675696 49.894190 -22.011299 38.266398 11.641568 0.000000 0.000000 0.000000 
-1.106073 46.495888 2.872917 0.000000 0.000000 0.000000 30.304269 -38.112087 20.898328 -73.164262 -17.386018 30.093803 87.003148 -27.349204 3.672366 -27.570414 7.240047 -25.057483 0.231383 -7.076669 0.777995 0.000000 0.000000 0.000000 31.083904 -39.724414 21.696396 -72.615805 0.151951 -33.762202 96.432927 20.485476 -10.141916 -37.340911 -21.153094 23.384638 2.767859 8.115376 -16.537823 0.000000 0.000000 0.000000 32.904003 -35.478274 19.765630 9.656935 3.876231 -0.597533 3.424338 -7.704655 -1.360634 0.222004 0.201103 0.033213 0.000000 0.000000 0.000000 4.151233 -5.383072 -1.255552 -0.510203 10.557221 -7.379137 -20.746763 58.710872 -0.963022 0.000000 0.000000 0.000000 3.644369 -7.012147 -2.446992 5.807629 -8.270762 -7.062834 -1.423625 -4.752732 0.158406 -73.405512 -4.021421 -11.892384 22.300204 -8.222220 12.813505 0.000000 0.000000 0.000000 6.285517 -5.774881 -1.531118 -2.876449 2.955973 12.895938 3.122534 3.616061 5.201715 -12.997839 -0.848520 49.025199 -22.426919 39.908932 11.437246 0.000000 0.000000 0.000000 
-0.679154 43.405155 3.047573 0.000000 0.000000 0.000000 31.276198 -37.739797 21.039271 -76.213662 -20.715911 31.484276 90.397383 -28.595214 4.036191 -27.326537 6.581507 -26.593164 -0.695581 -7.559573 0.227464 0.000000 0.000000 0.000000 32.335181 -39.868371 22.164430 -76.472014 3.642782 -34.212260 99.913728 21.105054 -9.709251 -35.337558 -21.092920 23.640062 0.944342 7.878876 -16.590463 0.000000 0.000000 0.000000 34.184602 -35.279778 20.270700 9.423599 4.145536 -0.949507 3.544860 -7.563884 -1.254492 0.185204 0.217778 0.038625 0.000000 0.000000 0.000000 4.229482 -5.286592 -1.223249 -0.252691 9.984297 -7.243961 -22.251658 56.375091 0.214630 0.000000 0.000000 0.000000 3.749761 -6.913119 -2.388574 5.931214 -7.769272 -7.077878 -1.066832 -4.922049 0.528171 -74.381470 -5.155428 -12.303751 23.031388 -7.163947 12.425016 0.000000 0.000000 0.000000 6.424829 -5.634099 -1.448709 -2.466590 3.419012 13.490795 3.709522 3.364024 4.951138 -11.963338 -0.287409 47.754668 -22.548444 40.782793 11.015227 0.000000 0.000000 0.000000 
-0.355027 40.734047 3.217857 0.000000 0.000000 0.000000 31.942951 -37.359031 20.862287 -78.759567 -23.885011 32.868660 93.048528 -29.633858 4.173410 -26.551003 5.628222 -27.634834 -1.742148 -8.013299 -0.607990 0.000000 0.000000 0.000000 33.265774 -40.013768 22.369150 -79.863510 7.155123 -34.104279 102.722862 21.608198 -9.057492 -32.609147 -21.112683 23.603553 -1.142920 7.542541 -16.244312 0.000000 0.000000 0.000000 35.109163 -35.078117 20.565503 9.193068 4.395326 -1.347212 3.580126 -7.410200 -1.181164 0.145154 0.211650 0.054482 0.000000 0.000000 0.000000 4.280010 -5.175741 -1.220170 -0.074680 9.324523 -6.993804 -23.481135 53.764913 1.063971 0.000000 0.000000 0.000000 3.814277 -6.814773 -2.311048 6.072367 -7.284042 -7.251873 -0.620303 -5.056725 0.846225 -75.154177 -6.228969 -12.728383 23.813443 -6.188242 11.994494 0.000000 0.000000 0.000000 6.485259 -5.529060 -1.394274 -2.020729 3.806250 14.343326 4.239680 3.172401 4.675976 -10.719360 0.185569 46.145164 -22.429329 40.974141 10.421825 0.000000 0.000000 0.000000 
-0.159665 38.549637 3.376839 0.000000 0.000000 0.000000 32.284535 -37.048845 20.480814 -80.879104 -26.814588 34.267496 95.023094 -30.498427 4.054933 -25.244389 4.465818 -28.200468 -2.645835 -8.408166 -1.688078 0.000000 0.000000 0.000000 33.747135 -40.145400 22.294610 -82.872926 10.426581 -33.593551 104.966211 21.915311 -8.130635 -29.837265 -21.235050 22.864306 -2.406046 7.035300 -15.618944 0.000000 0.000000 0.000000 35.745525 -34.921856 20.712649 9.030322 4.618224 -1.748314 3.579729 -7.268996 -1.149983 0.140425 0.191726 0.083360 0.000000 0.000000 0.000000 4.326950 -5.077514 -1.249852 -0.062633 8.623117 -6.605181 -24.677234 51.082964 1.628026 0.000000 0.000000 0.000000 3.880211 -6.737269 -2.224891 6.250349 -6.900322 -7.554378 -0.172662 -5.155573 1.085854 -75.732912 -7.204786 -13.107463 24.535407 -5.370227 11.510754 0.000000 0.000000 0.000000 6.499177 -5.474897 -1.367095 -1.561552 4.169139 15.456984 4.572521 3.047739 4.316727 -9.126127 0.701731 44.237103 -22.210465 40.736228 9.796861 0.000000 0.000000 0.000000 
-0.059464 36.808720 3.473793 0.000000 0.000000 0.000000 32.328675 -36.879579 20.028843 -82.709220 -29.476491 35.574518 96.450836 -31.206448 3.653826 -23.508644 3.224943 -28.373900 -3.248116 -8.740672 -2.996977 0.000000 0.000000 0.000000 33.722874 -40.171013 21.939913 -85.628265 13.350548 -33.019248 106.796114 22.114324 -7.057592 -27.024747 -21.345646 21.794003 -3.067580 6.524239 -14.845488 0.000000 0.000000 0.000000 36.186332 -34.801187 20.744260 8.957551 4.812976 -2.091502 3.590079 -7.144463 -1.149840 0.170698 0.166928 0.095672 0.000000 0.000000 0.000000 4.386701 -5.003406 -1.301972 -0.235740 7.885975 -6.050505 -26.043571 48.578751 1.950523 0.000000 0.000000 0.000000 3.958499 -6.678995 -2.138638 6.465104 -6.694904 -7.941557 0.140471 -5.108408 1.111846 -76.170119 -8.129831 -13.459432 25.094574 -4.828363 10.953174 0.000000 0.000000 0.000000 6.481552 -5.468968 -1.362616 -1.113863 4.531488 16.756607 4.600399 3.028063 3.865672 -7.038485 1.247175 42.071305 -22.069200 40.416599 9.294471 0.000000 0.000000 0.000000 
0.001634 35.420444 3.469242 0.000000 0.000000 0.000000 32.143447 -36.814436 19.572786 -84.308488 -31.851979 36.665224 97.405027 -31.838165 3.110334 -21.425516 1.916151 -28.439810 -3.878484 -9.011089 -4.348325 0.000000 0.000000 0.000000 33.289860 -40.212503 21.467619 -88.245061 15.837450 -32.627479 108.326131 22.269811 -6.021659 -23.773035 -21.413481 21.127546 -3.794990 6.149425 -14.064341 0.000000 0.000000 0.000000 36.513792 -34.604416 20.665789 9.014783 4.944694 -2.337315 3.628865 -7.021030 -1.163126 0.214178 0.146918 0.100805 0.000000 0.000000 0.000000 4.480627 -4.938936 -1.360982 -0.555318 7.112781 -5.314347 -27.532870 46.412580 1.986807 0.000000 0.000000 0.000000 4.034995 -6.624419 -2.057900 6.696171 -6.684564 -8.364941 0.327263 -4.872514 0.875514 -76.478639 -9.074239 -13.778709 25.456760 -4.724334 10.356349 0.000000 0.000000 0.000000 6.443327 -5.488360 -1.368552 -0.708891 4.922559 18.118108 4.398997 3.164115 3.453034 -4.400578 1.685319 39.598329 -22.148601 40.294141 9.039163 0.000000 0.000000 0.000000 
0.040007 34.319405 3.428261 0.000000 0.000000 0.000000 31.828087 -36.745325 19.175541 -85.682940 -33.933954 37.446335 97.887997 -32.418496 2.510360 -19.191711 0.576587 -28.623236 -4.789535 -9.210244 -5.602164 0.000000 0.000000 0.000000 32.648540 -40.333906 21.042867 -90.679483 17.791087 -32.500618 109.449260 22.471515 -5.174559 -20.147902 -21.425566 21.325505 -5.026532 5.950509 -13.365109 0.000000 0.000000 0.000000 36.696038 -34.345651 20.468163 9.179612 4.993740 -2.457607 3.679538 -6.907377 -1.173802 0.219619 0.113346 0.087467 0.000000 0.000000 0.000000 4.620444 -4.873645 -1.414296 -0.949219 6.299878 -4.425500 -29.041783 44.601846 1.780441 0.000000 0.000000 0.000000 4.088034 -6.561537 -1.992307 6.921759 -6.840745 -8.752787 0.361634 -4.562071 0.440740 -76.650275 -10.037660 -13.967210 25.628212 -5.022007 9.754740 0.000000 0.000000 0.000000 6.395608 -5.504359 -1.359585 -0.381503 5.359271 19.438894 4.233632 3.400382 3.116304 -1.436333 1.919692 36.937851 -22.522723 40.395515 9.085449 0.000000 0.000000 0.000000 
0.069335 33.433533 3.418320 0.000000 0.000000 0.000000 31.418286 -36.596526 18.820083 -86.688201 -35.582704 37.978335 97.933575 -32.930702 1.895648 -17.110433 -0.645915 -28.891823 -6.030514 -9.334335 -6.608045 0.000000 0.000000 0.000000 32.063357 -40.562308 20.750026 -92.661393 19.077990 -32.443877 110.093804 22.620506 -4.554132 -16.974053 -21.510851 21.974197 -6.588212 5.859423 -12.759406 0.000000 0.000000 0.000000 36.694536 -34.108483 20.175604 9.392615 4.969593 -2.467165 3.719466 -6.801836 -1.163251 0.187090 0.092722 0.073278 0.000000 0.000000 0.000000 4.794871 -4.803141 -1.443543 -1.354457 5.505345 -3.473862 -30.479852 43.050102 1.457355 0.000000 0.000000 0.000000 4.097872 -6.490591 -1.941690 7.127083 -7.120256 -9.116646 0.336647 -4.357316 0.016697 -76.645166 -10.944353 -13.970851 25.642719 -5.601595 9.202662 0.000000 0.000000 0.000000 6.359910 -5.495448 -1.311931 -0.166033 5.843748 20.623213 4.097897 3.585321 2.893301 1.454350 1.862126 34.205225 -23.099900 40.422432 9.315034 0.000000 0.000000 0.000000 
0.115900 32.774765 3.429852 0.000000 0.000000 0.000000 30.994364 -36.388031 18.493041 -87.156417 -36.691455 38.429219 97.614366 -33.301854 1.274802 -15.572123 -1.571172 -28.991131 -7.221883 -9.406782 -7.338108 0.000000 0.000000 0.000000 31.624237 -40.722838 20.512972 -94.004385 19.687402 -32.344310 110.418225 22.509408 -4.017922 -14.906582 -21.882936 22.217033 -7.771336 5.756974 -12.217975 0.000000 0.000000 0.000000 36.567074 -33.902231 19.863951 9.612830 4.899498 -2.416949 3.748192 -6.699406 -1.130858 0.155175 0.088267 0.084107 0.000000 0.000000 0.000000 4.970118 -4.718016 -1.435993 -1.669125 4.819457 -2.583247 -31.636781 41.753646 1.077867 0.000000 0.000000 0.000000 4.069384 -6.407185 -1.909239 7.302346 -7.450837 -9.471348 0.306825 -4.309209 -0.321708 -76.455416 -11.702285 -13.789689 25.566534 -6.324637 8.754646 0.000000 0.000000 0.000000 6.338332 -5.448044 -1.210839 -0.063616 6.346435 21.596163 4.019528 3.636385 2.769815 3.941119 1.454432 31.575585 -23.686633 40.006293 9.519133 0.000000 0.000000 0.000000 
